<?xml version="1.0"?>
<svg xmlns="http://www.w3.org/2000/svg" xmlns:xlink="http://www.w3.org/1999/xlink" x="0px" y="0px" width="258.801px"
	 height="359.42px" viewBox="0 0 258.801 359.42" enable-background="new 0 0 258.801 359.42" xml:space="preserve">
<switch>
	<g>
		<path fill="#14BAED" d="M149.801,80.13V39.39l-20.4,12.42L109,39.39v40.74c6.35,3.94,12.92,8.58,20.4,14.25
			C136.881,88.71,143.451,84.07,149.801,80.13z"/>
		<path fill="#14BAED" d="M194.801,114.04V76.25c-9.96,2.34-18.1,5.04-25.5,8.47c-3.11,1.44-6.08,3.01-9,4.73v42.02
			c2.99-2.06,5.99-3.96,9-5.71C177.82,120.79,186.371,116.98,194.801,114.04z"/>
		<polygon fill="#14BAED" points="194.801,300.59 194.801,269.42 175.781,269.42 169.301,279.46 165.98,284.6 169.301,286.439 		"/>
		<path fill="#14BAED" d="M239.511,95.1c-7.89,0.57-16.18,1.59-24.71,3.35V47.32c-3.15,0.56-6.14,1.12-9,1.68
			c-3.9,0.78-7.54,1.56-11,2.38c-9.57,2.28-17.66,4.83-25.5,8.14V0l-9,5.49l-10.5,6.39L129.4,24.3L109,11.88L98.5,5.49L89.5,0v59.52
			c-7.84-3.31-15.93-5.86-25.5-8.14c-3.46-0.82-7.1-1.6-11-2.38c-2.86-0.56-5.85-1.12-9-1.68v51.13
			c-8.53-1.76-16.82-2.78-24.71-3.35c-3.51-0.26-6.95-0.43-10.29-0.54c-3.08-0.1-6.09-0.15-9-0.18v184.04h44v62.5l9-5l11-6.1
			l25.5-14.15l9-5l10.5,16.57l20.4,32.18l20.4-32.18l10.5-16.57l9,5l25.5,14.15l11,6.1l9,5v-62.5h44V94.38
			c-2.91,0.03-5.92,0.08-9,0.18C246.461,94.67,243.021,94.84,239.511,95.1z M249.801,269.42h-44v56.05l-11-6.1l-25.5-14.15l-9-5
			l-10.5,16.26l-20.4,31.58l-20.4-31.58l-10.5-16.26l-9,5L64,319.37l-11,6.1v-56.05H9v-165.5c3.32,0.22,6.76,0.49,10.29,0.83
			c7.82,0.76,16.12,1.89,24.71,3.73c2.97,0.63,5.97,1.35,9,2.17V58.42c3.9,0.97,7.55,1.92,11,2.88c9.82,2.71,17.98,5.44,25.5,8.65
			c3.08,1.32,6.06,2.71,9,4.22V16.61L109,23l20.4,12.42l20.4-12.42l10.5-6.39v57.56c2.94-1.51,5.92-2.9,9-4.22
			c7.52-3.21,15.68-5.94,25.5-8.65c3.45-0.96,7.1-1.91,11-2.88v52.23c3.03-0.82,6.03-1.54,9-2.17c8.59-1.84,16.89-2.97,24.71-3.73
			c3.53-0.34,6.97-0.61,10.29-0.83V269.42z"/>
		<path fill="#14BAED" d="M169.301,255.92h25.5v-125.1c-8.18,3.24-16.87,7.56-25.5,13.32c-3.02,2-6.02,4.18-9,6.55v100.98h-10.5
			v-91.64c-7.17,7.11-13.97,15.5-20.03,25.43h-0.37h-0.37c-6.061-9.93-12.86-18.32-20.03-25.43v91.64H98.5V150.69
			c-2.98-2.37-5.98-4.55-9-6.55c-8.63-5.76-17.32-10.08-25.5-13.32v125.1h25.5l9,13.94l5.51,8.529l4.99-2.77l20.4-11.32l20.4,11.32
			l4.99,2.77l5.51-8.529L169.301,255.92z"/>
		<path fill="#14BAED" d="M205.801,126.96v128.96h33.71V121.03c-0.02,0-10.08,0-24.71,3.48
			C211.961,125.19,208.951,125.99,205.801,126.96z"/>
		<path fill="#14BAED" d="M129.4,159.67c6.631-7.82,13.46-14.52,20.4-20.26V96.47c-6.33,4.69-12.86,10.3-20.4,17.12
			c-7.54-6.82-14.07-12.43-20.4-17.12v42.94C115.94,145.15,122.77,151.85,129.4,159.67z"/>
		<path fill="#14BAED" d="M98.5,131.47V89.45c-2.92-1.72-5.89-3.29-9-4.73c-7.4-3.43-15.54-6.13-25.5-8.47v37.79
			c8.43,2.94,16.98,6.75,25.5,11.72C92.51,127.51,95.51,129.41,98.5,131.47z"/>
		<polygon fill="#14BAED" points="112.93,292.2 129.4,317.7 145.871,292.2 129.4,283.06 		"/>
		<polygon fill="#14BAED" points="83.02,269.42 64,269.42 64,300.59 89.5,286.439 92.82,284.6 89.5,279.46 		"/>
		<path fill="#14BAED" d="M44,124.51c-14.63-3.48-24.69-3.48-24.71-3.48v134.89H53V126.96C49.85,125.99,46.84,125.19,44,124.51z"/>
	</g>
</switch>
</svg>